# xmcd
#
# Track frame offsets: 
#        150
#        14633
#        34568
#        49445
#        70280
#        83103
#        102276
#        119821
#        130713
#        140536
#        163170
#        178225
#        194199
#        207572
#        225278
#        245588
#        260922
#        269827
#        298932
#        315997
#
# Disc length: 4427 seconds
#
# Revision: 0
# Processed by: cddbd v1.5.2PL0 Copyright (c) Steve Scherf et al.
# Submitted via: ExactAudioCopy v0.99pb5
#
DISCID=47114914
DTITLE=The Climax Blues Band - 20 Greatest Hits
DYEAR=1900
DGENRE=Blues
TTITLE0=Couldn't Get it Right
TTITLE1=Hey Baby Everything's Gonna Be Alright
TTITLE2=Don't Start Me Talking
TTITLE3=Reap What I've Sowed
TTITLE4=Lookiing for My Baby
TTITLE5=Like Uncle Charlie
TTITLE6=Reaching Out
TTITLE7=Lovin' Machine
TTITLE8=That's All
TTITLE9=Mole on The Dole
TTITLE10=Towards the  Sun
TTITLE11=Amerita/Sense of Direction
TTITLE12=Please Don't Help Me
TTITLE13=Spoonful Live
TTITLE14=Using the Power
TTITLE15=I Am Constant
TTITLE16=Country Hat
TTITLE17=Watcha Feel
TTITLE18=Shake Your Love Live
TTITLE19=Shoot Her if She Runs
EXTD=
EXTT0=
EXTT1=
EXTT2=
EXTT3=
EXTT4=
EXTT5=
EXTT6=
EXTT7=
EXTT8=
EXTT9=
EXTT10=
EXTT11=
EXTT12=
EXTT13=
EXTT14=
EXTT15=
EXTT16=
EXTT17=
EXTT18=
EXTT19=
PLAYORDER=
